<svg width="18" height="20" viewBox="0 0 18 20" fill="none" xmlns="http://www.w3.org/2000/svg">
<path d="M15.2222 9.11108H2.77778C1.79594 9.11108 1 9.90702 1 10.8889V17.1111C1 18.0929 1.79594 18.8889 2.77778 18.8889H15.2222C16.2041 18.8889 17 18.0929 17 17.1111V10.8889C17 9.90702 16.2041 9.11108 15.2222 9.11108Z" stroke="#7F7F7F" stroke-linecap="round" stroke-linejoin="round"/>
<path d="M4.55566 9.11108V5.55553C4.55566 4.37679 5.02392 3.24633 5.85741 2.41283C6.69091 1.57934 7.82137 1.11108 9.00011 1.11108C10.1788 1.11108 11.3093 1.57934 12.1428 2.41283C12.9763 3.24633 13.4446 4.37679 13.4446 5.55553V9.11108" stroke="#7F7F7F" stroke-linecap="round" stroke-linejoin="round"/>
</svg>
