<svg width="20" height="26" viewBox="0 0 20 26" fill="none" xmlns="http://www.w3.org/2000/svg">
<path d="M10.7255 18.8047C10.7255 19.4258 10.3214 20.0637 9.5084 20.5718C8.7025 21.0755 7.55804 21.4033 6.26769 21.4033C4.9761 21.4033 3.74694 21.0747 2.85639 20.5624C1.94666 20.039 1.5 19.3974 1.5 18.8047C1.5 18.212 1.94666 17.5704 2.85639 17.047C3.74694 16.5347 4.9761 16.2061 6.26769 16.2061C7.55804 16.2061 8.7025 16.5339 9.5084 17.0376C10.3214 17.5457 10.7255 18.1836 10.7255 18.8047Z" stroke="#7F7F7F"/>
<path d="M1.30981 18.8049C1.30981 22.2276 3.52951 25.0022 6.26764 25.0022C9.00577 25.0022 11.2255 22.2276 11.2255 18.8049C11.2255 13.0629 21.451 2.30465 18.3523 1.14267C13.3945 -0.716514 11.5353 16.494 8.74655 16.494" stroke="#7F7F7F"/>
<mask id="path-3-inside-1" fill="white">
<ellipse cx="16.5343" cy="3.48479" rx="1.6163" ry="0.929592" transform="rotate(-61.3684 16.5343 3.48479)"/>
</mask>
<path d="M16.8296 2.94386C16.7258 2.88719 16.676 2.80957 16.6594 2.77421C16.6461 2.74558 16.6577 2.75425 16.6591 2.81884C16.6621 2.95172 16.6179 3.18469 16.4725 3.45105L18.2279 4.40941C18.5102 3.89227 18.6706 3.3162 18.6586 2.77441C18.6473 2.26385 18.4613 1.55602 17.7879 1.18842L16.8296 2.94386ZM16.4725 3.45105C16.327 3.71742 16.155 3.88056 16.0416 3.94993C15.9865 3.98366 15.9729 3.9786 16.0042 3.97436C16.0429 3.96913 16.1351 3.96906 16.2389 4.02573L15.2806 5.78117C15.9539 6.14877 16.6499 5.92243 17.0855 5.65588C17.5478 5.37301 17.9456 4.92654 18.2279 4.40941L16.4725 3.45105ZM16.2389 4.02573C16.3427 4.08239 16.3926 4.16001 16.4091 4.19537C16.4224 4.22401 16.4109 4.21534 16.4094 4.15074C16.4065 4.01787 16.4506 3.7849 16.5961 3.51853L14.8406 2.56018C14.5583 3.07731 14.3979 3.65338 14.4099 4.19518C14.4213 4.70574 14.6072 5.41356 15.2806 5.78117L16.2389 4.02573ZM16.5961 3.51853C16.7415 3.25217 16.9136 3.08902 17.0269 3.01965C17.082 2.98593 17.0956 2.99099 17.0643 2.99522C17.0256 3.00045 16.9334 3.00052 16.8296 2.94386L17.7879 1.18842C17.1146 0.820818 16.4186 1.04715 15.983 1.31371C15.5208 1.59657 15.1229 2.04304 14.8406 2.56018L16.5961 3.51853Z" fill="#7F7F7F" mask="url(#path-3-inside-1)"/>
</svg>
