<svg width="16" height="16" viewBox="0 0 16 16" fill="none" xmlns="http://www.w3.org/2000/svg">
<path d="M4.72818e-06 8C5.23268e-06 3.58172 3.58173 -8.31193e-07 8 -5.35464e-07C12.4183 -2.39736e-07 16 3.58172 16 8C16 12.4183 12.4183 16 8 16C3.58173 16 4.22368e-06 12.4183 4.72818e-06 8Z" fill="#7F7F7F"/>
<path d="M4.72818e-06 8C5.23268e-06 3.58172 3.58173 -8.31193e-07 8 -5.35464e-07C12.4183 -2.39736e-07 16 3.58172 16 8C16 12.4183 12.4183 16 8 16C3.58173 16 4.22368e-06 12.4183 4.72818e-06 8Z" stroke="#524BB8"/>
<mask id="mask0" style="mask-type:alpha" maskUnits="userSpaceOnUse" x="2" y="2" width="12" height="12">
<circle cx="8.00056" cy="7.99934" r="5.71428" transform="rotate(-180 8.00056 7.99934)" fill="#1D1D1D"/>
<circle cx="8.00056" cy="7.99934" r="5.71428" transform="rotate(-180 8.00056 7.99934)" stroke="white"/>
</mask>
<g mask="url(#mask0)">
<path d="M14.428 1.57108L3.57084 12.4282L0.713696 11.7139L-0.000589525 5.42822L5.57084 0.713936L14.428 1.57108Z" fill="black"/>
</g>
</svg>
