<svg width="60" height="59" viewBox="0 0 60 59" fill="none" xmlns="http://www.w3.org/2000/svg">
<path d="M29.9626 0C46.2559 0 59.4626 13.2068 59.4626 29.5C59.4626 45.7932 46.2559 59 29.9626 59C13.6694 59 0.462646 45.7932 0.462646 29.5C0.462646 13.2068 13.6694 0 29.9626 0ZM25.8953 12.9431C23.4063 12.7403 21.4832 13.3672 20.4876 14.7961L13.6381 24.5809C12.6425 26.0079 12.6756 28.0822 13.6713 30.4256C15.0486 33.654 18.2327 37.4761 22.6116 40.6713C26.9739 43.8812 31.5354 45.7508 34.9684 46.055C37.4391 46.2597 39.3805 45.631 40.3761 44.2039L47.2091 34.4191C48.2047 32.9921 48.1715 30.9178 47.1759 28.5744C45.8152 25.346 42.6145 21.5239 38.2521 18.3121C33.8732 15.1188 29.3284 13.2326 25.8953 12.9431ZM40.2545 35.8941C41.5543 36.1246 42.7085 36.167 43.6562 36.0121C43.7187 36.0059 43.7813 36.0238 43.8311 36.0621C43.881 36.1004 43.9144 36.1562 43.9245 36.2183C43.9346 36.2803 43.9207 36.3439 43.8855 36.396C43.8504 36.4481 43.7967 36.4849 43.7355 36.4989C42.7269 36.6648 41.5193 36.6187 40.1696 36.3809C40.1058 36.3689 40.0492 36.3322 40.0122 36.2789C39.9752 36.2255 39.9606 36.1596 39.9718 36.0956C39.983 36.0316 40.0189 35.9746 40.0718 35.9369C40.1247 35.8992 40.1903 35.8838 40.2545 35.8941ZM38.3609 35.4535C38.6799 35.5438 38.9933 35.6249 39.3012 35.6968C39.3629 35.7135 39.4158 35.7534 39.4487 35.8082C39.4815 35.863 39.4919 35.9284 39.4776 35.9907C39.4633 36.053 39.4254 36.1073 39.3719 36.1422C39.3184 36.1772 39.2534 36.19 39.1906 36.1781C38.8735 36.1043 38.5527 36.0213 38.2282 35.9292C38.167 35.9099 38.1157 35.8676 38.0851 35.8113C38.0545 35.7549 38.0471 35.6888 38.0643 35.6271C38.0816 35.5653 38.1221 35.5126 38.1775 35.4802C38.2328 35.4478 38.2986 35.4382 38.3609 35.4535ZM21.4353 15.493C22.2318 14.3536 23.8082 13.9812 25.7976 14.1508C29.0647 14.4218 33.3939 16.2397 37.5571 19.2985C41.7368 22.3555 44.8067 25.9747 46.1157 29.0501C46.8956 30.9178 47.0616 32.5827 46.2651 33.7056L46.2153 33.7904C45.4041 34.8598 43.8608 35.2175 41.9028 35.0626C38.6356 34.7916 34.3065 32.9736 30.1433 29.9167C25.9801 26.8579 22.9121 23.2386 21.6012 20.1467C20.8213 18.3121 20.6554 16.6988 21.4021 15.5594L21.4353 15.493ZM20.0636 20.0065C20.1926 19.9678 20.3309 20.0434 20.3678 20.1725C21.1919 22.9971 23.3436 25.7314 26.7416 28.8344L27.1233 29.181C27.3187 29.3562 27.516 29.5313 27.717 29.7065C27.7417 29.7278 27.7619 29.7539 27.7765 29.7831C27.7911 29.8123 27.7998 29.8441 27.802 29.8767C27.8042 29.9092 27.8 29.9419 27.7895 29.9728C27.779 30.0038 27.7625 30.0323 27.7409 30.0568C27.7196 30.0811 27.6938 30.1009 27.6648 30.1151C27.6359 30.1294 27.6044 30.1378 27.5722 30.1398C27.54 30.1419 27.5077 30.1376 27.4772 30.1271C27.4467 30.1167 27.4185 30.1003 27.3943 30.0789C27.1306 29.8475 26.8688 29.614 26.6089 29.3783L26.2309 29.0354C22.8753 25.9416 20.7365 23.1962 19.8976 20.3126C19.8793 20.25 19.8864 20.1827 19.9175 20.1254C19.9486 20.068 20.0011 20.0253 20.0636 20.0065ZM29.7451 19.4847C28.8158 19.4165 28.071 19.5696 27.7059 20.0969C27.3408 20.6223 27.4404 21.3875 27.8055 22.2541C28.4508 23.7991 29.994 25.6005 32.083 27.1308C34.1738 28.6593 36.331 29.5756 37.9719 29.712C38.8846 29.7968 39.6313 29.6438 39.9963 29.1183C40.378 28.591 40.2784 27.8277 39.8968 26.9612C39.2496 25.4124 37.7064 23.5963 35.6174 22.0678C33.5432 20.5375 31.3713 19.6378 29.7451 19.4847ZM19.7944 18.0503C19.8266 18.0491 19.8587 18.0542 19.8889 18.0654C19.9192 18.0766 19.9469 18.0936 19.9705 18.1156C19.9941 18.1375 20.0132 18.1638 20.0267 18.1931C20.0401 18.2224 20.0476 18.2541 20.0488 18.2863C20.0617 18.5998 20.0967 18.9169 20.1502 19.2358C20.1569 19.2681 20.1571 19.3013 20.1506 19.3336C20.1442 19.3659 20.1314 19.3966 20.1128 19.4238C20.0943 19.451 20.0705 19.4742 20.0428 19.492C20.0151 19.5099 19.9841 19.5219 19.9516 19.5275C19.9192 19.5331 19.886 19.532 19.8539 19.5245C19.8219 19.5169 19.7917 19.503 19.7651 19.4835C19.7386 19.4641 19.7162 19.4394 19.6994 19.4111C19.6825 19.3828 19.6716 19.3514 19.6671 19.3188C19.6092 18.9841 19.5728 18.646 19.5584 18.3066C19.5569 18.2741 19.5618 18.2417 19.5729 18.2112C19.5839 18.1806 19.6009 18.1526 19.6228 18.1286C19.6448 18.1046 19.6712 18.0852 19.7006 18.0714C19.7301 18.0577 19.7619 18.0499 19.7944 18.0485V18.0503Z" fill="black"/>
</svg>
