<svg width="20" height="26" viewBox="0 0 20 26" fill="none" xmlns="http://www.w3.org/2000/svg">
<path d="M10.7255 18.8025C10.7255 19.4236 10.3214 20.0615 9.5084 20.5696C8.7025 21.0733 7.55804 21.4011 6.26769 21.4011C4.9761 21.4011 3.74694 21.0725 2.85639 20.5602C1.94666 20.0368 1.5 19.3952 1.5 18.8025C1.5 18.2098 1.94666 17.5682 2.85639 17.0448C3.74694 16.5325 4.9761 16.2039 6.26769 16.2039C7.55804 16.2039 8.7025 16.5317 9.5084 17.0354C10.3214 17.5435 10.7255 18.1814 10.7255 18.8025Z" stroke="white"/>
<path d="M1.30957 18.8027C1.30957 22.2254 3.52926 25 6.2674 25C9.00553 25 11.2252 22.2254 11.2252 18.8027C11.2252 13.0607 21.4507 2.30246 18.3521 1.14047C13.3943 -0.718711 11.5351 16.4918 8.74631 16.4918" stroke="white"/>
<mask id="path-3-inside-1" fill="white">
<ellipse cx="16.5347" cy="3.48272" rx="1.6163" ry="0.929592" transform="rotate(-61.3684 16.5347 3.48272)"/>
</mask>
<path d="M16.8301 2.94178C16.7263 2.88512 16.6765 2.8075 16.6599 2.77214C16.6466 2.7435 16.6582 2.75217 16.6596 2.81677C16.6625 2.94964 16.6184 3.18261 16.4729 3.44898L18.2284 4.40733C18.5107 3.8902 18.6711 3.31413 18.6591 2.77233C18.6477 2.26177 18.4618 1.55395 17.7884 1.18634L16.8301 2.94178ZM16.4729 3.44898C16.3275 3.71534 16.1554 3.87849 16.0421 3.94786C15.987 3.98158 15.9734 3.97652 16.0047 3.97229C16.0434 3.96706 16.1356 3.96699 16.2394 4.02365L15.2811 5.77909C15.9544 6.14669 16.6504 5.92036 17.086 5.6538C17.5483 5.37094 17.9461 4.92447 18.2284 4.40733L16.4729 3.44898ZM16.2394 4.02365C16.3432 4.08032 16.393 4.15794 16.4096 4.1933C16.4229 4.22193 16.4113 4.21326 16.4099 4.14867C16.407 4.01579 16.4511 3.78282 16.5965 3.51646L14.8411 2.5581C14.5588 3.07524 14.3984 3.65131 14.4104 4.1931C14.4218 4.70366 14.6077 5.41149 15.2811 5.77909L16.2394 4.02365ZM16.5965 3.51646C16.742 3.25009 16.914 3.08695 17.0274 3.01758C17.0825 2.98385 17.0961 2.98891 17.0648 2.99315C17.0261 2.99838 16.9339 2.99845 16.8301 2.94178L17.7884 1.18634C17.1151 0.818743 16.4191 1.04508 15.9835 1.31163C15.5212 1.5945 15.1234 2.04097 14.8411 2.5581L16.5965 3.51646Z" fill="white" mask="url(#path-3-inside-1)"/>
</svg>
