<svg width="16" height="16" viewBox="0 0 16 16" fill="none" xmlns="http://www.w3.org/2000/svg">
<path d="M15.3334 2.00011C14.695 2.45043 13.9882 2.79485 13.2401 3.02011C12.8386 2.55845 12.305 2.23124 11.7114 2.08273C11.1179 1.93422 10.4931 1.97158 9.92147 2.18975C9.34986 2.40792 8.85904 2.79638 8.5154 3.30259C8.17176 3.8088 7.99188 4.40834 8.00008 5.02011V5.68678C6.8285 5.71716 5.6676 5.45732 4.62075 4.93041C3.57391 4.4035 2.67363 3.62587 2.00008 2.66678C2.00008 2.66678 -0.666585 8.66678 5.33341 11.3334C3.96043 12.2654 2.32485 12.7327 0.666748 12.6668C6.66675 16.0001 14.0001 12.6668 14.0001 5.00011C13.9995 4.81441 13.9816 4.62918 13.9467 4.44678C14.6271 3.77577 15.1073 2.92859 15.3334 2.00011V2.00011Z" stroke="#FFFDFD" stroke-linecap="round"/>
</svg>
